<?xml version="1.0" standalone="no"?>
<!DOCTYPE svg PUBLIC "-//W3C//DTD SVG 20010904//EN"
 "http://www.w3.org/TR/2001/REC-SVG-20010904/DTD/svg10.dtd">
<svg version="1.0" xmlns="http://www.w3.org/2000/svg"
 width="225.000000pt" height="225.000000pt" viewBox="0 0 225.000000 225.000000"
 preserveAspectRatio="xMidYMid meet">

<g transform="translate(0.000000,225.000000) scale(0.100000,-0.100000)"
fill="#000000" stroke="none">
<path d="M892 1915 c-20 -25 -42 -37 -89 -48 -34 -9 -90 -28 -124 -42 l-63
-25 -23 27 c-23 28 -23 28 -38 8 -9 -11 -21 -37 -27 -58 -8 -27 -25 -48 -59
-72 -56 -42 -155 -146 -199 -210 -46 -68 -107 -203 -132 -292 -31 -113 -31
-344 0 -458 27 -99 89 -229 146 -309 51 -71 160 -178 229 -225 174 -118 420
-178 623 -152 366 48 653 280 770 623 74 218 54 500 -50 706 -150 298 -463
498 -790 505 -90 2 -97 4 -102 24 -9 36 -41 35 -72 -2z m62 -12 c17 -86 25
-197 14 -204 -7 -5 4 -25 34 -61 25 -29 77 -100 116 -158 166 -244 220 -299
344 -345 126 -48 186 -83 217 -125 34 -48 56 -127 47 -174 -10 -51 -75 -144
-149 -213 -52 -48 -83 -68 -148 -93 -132 -51 -225 -71 -324 -72 -77 -1 -103 3
-178 30 -168 60 -285 159 -357 307 -49 98 -68 189 -75 348 -5 124 3 270 14
263 3 -2 6 62 6 142 0 144 14 226 45 272 17 25 46 -20 76 -118 29 -92 44 -121
44 -84 0 24 26 44 84 62 30 10 40 10 46 0 4 -7 10 3 15 27 10 57 44 154 67
191 25 40 54 42 62 5z m309 -88 c293 -85 518 -302 605 -585 164 -534 -221
-1091 -779 -1127 -265 -17 -506 80 -695 280 -165 173 -242 384 -231 631 8 174
54 314 150 456 34 50 166 190 179 190 22 0 3 -31 -53 -85 -283 -279 -332 -725
-116 -1058 40 -62 125 -162 132 -155 2 2 16 50 31 108 21 80 28 137 32 237 2
73 7 133 11 133 3 0 14 -20 24 -45 43 -104 156 -219 273 -277 103 -52 183 -73
279 -71 153 2 359 67 456 144 22 17 42 29 45 27 2 -3 22 -44 43 -92 l39 -87
31 43 c48 64 108 193 132 284 25 94 30 284 10 379 -41 188 -148 364 -294 483
-148 120 -347 192 -529 192 -47 0 -58 3 -58 17 0 14 11 15 98 10 58 -4 132
-16 185 -32z m-425 0 c-2 -9 -36 -27 -83 -44 -44 -16 -88 -32 -97 -36 -13 -5
-18 -3 -18 8 0 14 110 64 175 80 11 2 21 5 23 6 2 0 2 -6 0 -14z"/>
<path d="M922 1833 c-6 -10 -13 -36 -17 -58 -3 -22 -8 -50 -11 -62 -2 -13 0
-23 4 -23 5 0 12 25 15 55 8 79 19 88 34 30 l12 -50 -5 55 c-6 62 -17 81 -32
53z"/>
<path d="M556 1685 c-9 -25 -7 -173 2 -179 5 -3 8 32 8 77 -1 46 3 84 9 86 6
2 20 -25 33 -60 19 -52 22 -57 18 -26 -6 44 -36 109 -52 114 -6 2 -14 -3 -18
-12z"/>
<path d="M992 1467 c-12 -13 -22 -27 -22 -32 0 -4 11 4 25 19 29 31 35 32 69
5 32 -25 35 -18 4 11 -28 26 -49 25 -76 -3z"/>
<path d="M793 1418 c-11 -13 -23 -32 -27 -43 -5 -13 3 -8 21 13 15 18 42 37
58 42 l30 8 -31 1 c-20 1 -38 -7 -51 -21z"/>
<path d="M1098 1317 c-69 -64 -31 -205 60 -223 26 -5 36 -1 62 24 25 25 30 39
30 77 0 62 -22 110 -59 129 -41 22 -64 20 -93 -7z m91 -3 c23 -17 57 -82 47
-92 -3 -2 -12 1 -21 8 -21 17 -73 -5 -81 -34 -6 -25 11 -76 26 -76 5 0 10 -4
10 -9 0 -18 -41 2 -65 31 -41 49 -30 146 19 180 17 12 40 9 65 -8z"/>
<path d="M865 1271 c-33 -14 -56 -47 -62 -90 -7 -54 2 -84 38 -126 25 -28 38
-35 68 -35 87 0 126 92 80 187 -29 59 -76 83 -124 64z m65 -16 c31 -16 47 -39
60 -86 8 -28 -2 -40 -15 -19 -11 18 -53 11 -69 -12 -22 -31 -20 -64 6 -88 l22
-20 -25 0 c-16 0 -38 14 -60 36 -30 31 -34 41 -34 89 0 63 29 103 83 114 2 1
16 -6 32 -14z"/>
<path d="M530 478 c0 -29 -6 -59 -25 -145 -3 -13 -1 -23 3 -23 5 0 14 30 20
68 6 37 14 82 18 100 4 21 3 32 -5 32 -6 0 -11 -15 -11 -32z"/>
</g>
</svg>
